G04 #@! TF.FileFunction,Soldermask,Bot*
%FSLAX46Y46*%
G04 Gerber Fmt 4.6, Leading zero omitted, Abs format (unit mm)*
G04 Created by KiCad (PCBNEW 4.0.0-rc2-stable) date 29.11.2015 16:31:19*
%MOMM*%
G01*
G04 APERTURE LIST*
%ADD10C,0.100000*%
%ADD11R,2.127200X2.432000*%
%ADD12O,2.127200X2.432000*%
%ADD13R,2.432000X2.127200*%
%ADD14O,2.432000X2.127200*%
%ADD15R,2.200000X1.600000*%
%ADD16R,2.127200X2.127200*%
%ADD17O,2.127200X2.127200*%
G04 APERTURE END LIST*
D10*
D11*
X125730000Y-99695000D03*
D12*
X123190000Y-99695000D03*
X120650000Y-99695000D03*
X118110000Y-99695000D03*
X115570000Y-99695000D03*
X113030000Y-99695000D03*
D13*
X129540000Y-78105000D03*
D14*
X129540000Y-80645000D03*
X129540000Y-83185000D03*
X129540000Y-85725000D03*
X129540000Y-88265000D03*
X129540000Y-90805000D03*
D13*
X109220000Y-90805000D03*
D14*
X109220000Y-88265000D03*
X109220000Y-85725000D03*
X109220000Y-83185000D03*
X109220000Y-80645000D03*
X109220000Y-78105000D03*
D15*
X113380000Y-77550000D03*
X113380000Y-79550000D03*
X113380000Y-81550000D03*
X113380000Y-83550000D03*
X113380000Y-85550000D03*
X113380000Y-87550000D03*
X113380000Y-89550000D03*
X125380000Y-89550000D03*
X125380000Y-87550000D03*
X125380000Y-85550000D03*
X125380000Y-83550000D03*
X125380000Y-81550000D03*
X125380000Y-79550000D03*
X125380000Y-77550000D03*
D16*
X115570000Y-88900000D03*
D17*
X115570000Y-86360000D03*
X118110000Y-88900000D03*
X118110000Y-86360000D03*
X120650000Y-88900000D03*
X120650000Y-86360000D03*
X123190000Y-88900000D03*
X123190000Y-86360000D03*
M02*
