M48
INCH,TZ
T1C0.016
T2C0.031
T3C0.040
%
G90
G05
T1
X43650Y-35150
X45500Y-37100
X46400Y-37100
X46500Y-35900
X46700Y-36300
X47700Y-32500
X47750Y-37450
X47900Y-36200
X48550Y-32500
X49150Y-36300
X51100Y-37200
T2
X44638Y-30531
X44638Y-31319
X44638Y-32106
X44638Y-32894
X44638Y-33681
X44638Y-34469
X44638Y-35256
X49362Y-30531
X49362Y-31319
X49362Y-32106
X49362Y-32894
X49362Y-33681
X49362Y-34469
X49362Y-35256
T3
X43000Y-30750
X43000Y-31750
X43000Y-32750
X43000Y-33750
X43000Y-34750
X43000Y-35750
X44500Y-39250
X45500Y-34000
X45500Y-35000
X45500Y-39250
X46500Y-34000
X46500Y-35000
X46500Y-39250
X47500Y-34000
X47500Y-35000
X47500Y-39250
X48500Y-34000
X48500Y-35000
X48500Y-39250
X49500Y-39250
X51000Y-30750
X51000Y-31750
X51000Y-32750
X51000Y-33750
X51000Y-34750
X51000Y-35750
T0
M30
