G04 #@! TF.FileFunction,Copper,L2,Bot,Signal*
%FSLAX46Y46*%
G04 Gerber Fmt 4.6, Leading zero omitted, Abs format (unit mm)*
G04 Created by KiCad (PCBNEW 4.0.0-rc2-stable) date 29.11.2015 16:31:19*
%MOMM*%
G01*
G04 APERTURE LIST*
%ADD10C,0.100000*%
%ADD11R,1.727200X2.032000*%
%ADD12O,1.727200X2.032000*%
%ADD13R,2.032000X1.727200*%
%ADD14O,2.032000X1.727200*%
%ADD15R,1.800000X1.200000*%
%ADD16R,1.727200X1.727200*%
%ADD17O,1.727200X1.727200*%
%ADD18C,0.600000*%
%ADD19C,0.254000*%
%ADD20C,0.889000*%
G04 APERTURE END LIST*
D10*
D11*
X125730000Y-99695000D03*
D12*
X123190000Y-99695000D03*
X120650000Y-99695000D03*
X118110000Y-99695000D03*
X115570000Y-99695000D03*
X113030000Y-99695000D03*
D13*
X129540000Y-78105000D03*
D14*
X129540000Y-80645000D03*
X129540000Y-83185000D03*
X129540000Y-85725000D03*
X129540000Y-88265000D03*
X129540000Y-90805000D03*
D13*
X109220000Y-90805000D03*
D14*
X109220000Y-88265000D03*
X109220000Y-85725000D03*
X109220000Y-83185000D03*
X109220000Y-80645000D03*
X109220000Y-78105000D03*
D15*
X113380000Y-77550000D03*
X113380000Y-79550000D03*
X113380000Y-81550000D03*
X113380000Y-83550000D03*
X113380000Y-85550000D03*
X113380000Y-87550000D03*
X113380000Y-89550000D03*
X125380000Y-89550000D03*
X125380000Y-87550000D03*
X125380000Y-85550000D03*
X125380000Y-83550000D03*
X125380000Y-81550000D03*
X125380000Y-79550000D03*
X125380000Y-77550000D03*
D16*
X115570000Y-88900000D03*
D17*
X115570000Y-86360000D03*
X118110000Y-88900000D03*
X118110000Y-86360000D03*
X120650000Y-88900000D03*
X120650000Y-86360000D03*
X123190000Y-88900000D03*
X123190000Y-86360000D03*
D18*
X129794000Y-94488000D03*
X121285000Y-95123000D03*
X115570000Y-94234000D03*
X117856000Y-94234000D03*
X124841000Y-92202000D03*
X121666000Y-91948000D03*
X121158000Y-82550000D03*
X123317000Y-82550000D03*
X110871000Y-89281000D03*
X118110000Y-91186000D03*
X118618000Y-92202000D03*
D19*
X117856000Y-94234000D02*
X115570000Y-94234000D01*
D20*
X126238000Y-91821000D02*
X125857000Y-92202000D01*
X125857000Y-92202000D02*
X124841000Y-92202000D01*
X125380000Y-79550000D02*
X126286000Y-79550000D01*
X127381000Y-90678000D02*
X126238000Y-91821000D01*
X127381000Y-80645000D02*
X127381000Y-90678000D01*
X126286000Y-79550000D02*
X127381000Y-80645000D01*
D19*
X121666000Y-91948000D02*
X123190000Y-90424000D01*
X123190000Y-90424000D02*
X123190000Y-88900000D01*
X115824000Y-86360000D02*
X115570000Y-86360000D01*
X123317000Y-82550000D02*
X121158000Y-82550000D01*
X123317000Y-82550000D02*
X123190000Y-82677000D01*
X110871000Y-89281000D02*
X113111000Y-89281000D01*
X113111000Y-89281000D02*
X113380000Y-89550000D01*
X118110000Y-88900000D02*
X118110000Y-91186000D01*
X119380000Y-87503000D02*
X119380000Y-91440000D01*
X120523000Y-86360000D02*
X119380000Y-87503000D01*
X119380000Y-91440000D02*
X118618000Y-92202000D01*
X120650000Y-86360000D02*
X120523000Y-86360000D01*
G36*
X112209135Y-76671546D02*
X112122141Y-76798866D01*
X112091536Y-76950000D01*
X112091536Y-78150000D01*
X112118103Y-78291190D01*
X112201546Y-78420865D01*
X112328866Y-78507859D01*
X112480000Y-78538464D01*
X114280000Y-78538464D01*
X114421190Y-78511897D01*
X114550865Y-78428454D01*
X114637859Y-78301134D01*
X114668464Y-78150000D01*
X114668464Y-76950000D01*
X114641897Y-76808810D01*
X114558454Y-76679135D01*
X114524595Y-76656000D01*
X124233294Y-76656000D01*
X124209135Y-76671546D01*
X124122141Y-76798866D01*
X124091536Y-76950000D01*
X124091536Y-78150000D01*
X124118103Y-78291190D01*
X124201546Y-78420865D01*
X124328866Y-78507859D01*
X124480000Y-78538464D01*
X126280000Y-78538464D01*
X126421190Y-78511897D01*
X126550865Y-78428454D01*
X126637859Y-78301134D01*
X126668464Y-78150000D01*
X126668464Y-77241400D01*
X128135536Y-77241400D01*
X128135536Y-78968600D01*
X128162103Y-79109790D01*
X128245546Y-79239465D01*
X128372866Y-79326459D01*
X128524000Y-79357064D01*
X130556000Y-79357064D01*
X130697190Y-79330497D01*
X130826865Y-79247054D01*
X130913859Y-79119734D01*
X130944464Y-78968600D01*
X130944464Y-77241400D01*
X130917897Y-77100210D01*
X130834454Y-76970535D01*
X130707134Y-76883541D01*
X130556000Y-76852936D01*
X128524000Y-76852936D01*
X128382810Y-76879503D01*
X128253135Y-76962946D01*
X128166141Y-77090266D01*
X128135536Y-77241400D01*
X126668464Y-77241400D01*
X126668464Y-76950000D01*
X126641897Y-76808810D01*
X126558454Y-76679135D01*
X126524595Y-76656000D01*
X131624000Y-76656000D01*
X131624000Y-101144000D01*
X127058625Y-101144000D01*
X127131927Y-101070698D01*
X127228600Y-100837309D01*
X127228600Y-99980750D01*
X127069850Y-99822000D01*
X125857000Y-99822000D01*
X125857000Y-99842000D01*
X125603000Y-99842000D01*
X125603000Y-99822000D01*
X125583000Y-99822000D01*
X125583000Y-99568000D01*
X125603000Y-99568000D01*
X125603000Y-98202750D01*
X125857000Y-98202750D01*
X125857000Y-99568000D01*
X127069850Y-99568000D01*
X127228600Y-99409250D01*
X127228600Y-98552691D01*
X127131927Y-98319302D01*
X126953299Y-98140673D01*
X126719910Y-98044000D01*
X126015750Y-98044000D01*
X125857000Y-98202750D01*
X125603000Y-98202750D01*
X125444250Y-98044000D01*
X124740090Y-98044000D01*
X124506701Y-98140673D01*
X124328073Y-98319302D01*
X124231400Y-98552691D01*
X124231400Y-98876621D01*
X124070065Y-98635166D01*
X123666288Y-98365371D01*
X123190000Y-98270631D01*
X122713712Y-98365371D01*
X122309935Y-98635166D01*
X122040140Y-99038943D01*
X121945400Y-99515231D01*
X121945400Y-99874769D01*
X122040140Y-100351057D01*
X122309935Y-100754834D01*
X122713712Y-101024629D01*
X123190000Y-101119369D01*
X123666288Y-101024629D01*
X124070065Y-100754834D01*
X124231400Y-100513379D01*
X124231400Y-100837309D01*
X124328073Y-101070698D01*
X124401375Y-101144000D01*
X107136000Y-101144000D01*
X107136000Y-99515231D01*
X111785400Y-99515231D01*
X111785400Y-99874769D01*
X111880140Y-100351057D01*
X112149935Y-100754834D01*
X112553712Y-101024629D01*
X113030000Y-101119369D01*
X113506288Y-101024629D01*
X113910065Y-100754834D01*
X114179860Y-100351057D01*
X114274600Y-99874769D01*
X114274600Y-99515231D01*
X114325400Y-99515231D01*
X114325400Y-99874769D01*
X114420140Y-100351057D01*
X114689935Y-100754834D01*
X115093712Y-101024629D01*
X115570000Y-101119369D01*
X116046288Y-101024629D01*
X116450065Y-100754834D01*
X116719860Y-100351057D01*
X116814600Y-99874769D01*
X116814600Y-99515231D01*
X116865400Y-99515231D01*
X116865400Y-99874769D01*
X116960140Y-100351057D01*
X117229935Y-100754834D01*
X117633712Y-101024629D01*
X118110000Y-101119369D01*
X118586288Y-101024629D01*
X118990065Y-100754834D01*
X119259860Y-100351057D01*
X119354600Y-99874769D01*
X119354600Y-99515231D01*
X119405400Y-99515231D01*
X119405400Y-99874769D01*
X119500140Y-100351057D01*
X119769935Y-100754834D01*
X120173712Y-101024629D01*
X120650000Y-101119369D01*
X121126288Y-101024629D01*
X121530065Y-100754834D01*
X121799860Y-100351057D01*
X121894600Y-99874769D01*
X121894600Y-99515231D01*
X121799860Y-99038943D01*
X121530065Y-98635166D01*
X121126288Y-98365371D01*
X120650000Y-98270631D01*
X120173712Y-98365371D01*
X119769935Y-98635166D01*
X119500140Y-99038943D01*
X119405400Y-99515231D01*
X119354600Y-99515231D01*
X119259860Y-99038943D01*
X118990065Y-98635166D01*
X118586288Y-98365371D01*
X118110000Y-98270631D01*
X117633712Y-98365371D01*
X117229935Y-98635166D01*
X116960140Y-99038943D01*
X116865400Y-99515231D01*
X116814600Y-99515231D01*
X116719860Y-99038943D01*
X116450065Y-98635166D01*
X116046288Y-98365371D01*
X115570000Y-98270631D01*
X115093712Y-98365371D01*
X114689935Y-98635166D01*
X114420140Y-99038943D01*
X114325400Y-99515231D01*
X114274600Y-99515231D01*
X114179860Y-99038943D01*
X113910065Y-98635166D01*
X113506288Y-98365371D01*
X113030000Y-98270631D01*
X112553712Y-98365371D01*
X112149935Y-98635166D01*
X111880140Y-99038943D01*
X111785400Y-99515231D01*
X107136000Y-99515231D01*
X107136000Y-94368865D01*
X114888882Y-94368865D01*
X114992339Y-94619252D01*
X115183741Y-94810987D01*
X115433946Y-94914882D01*
X115704865Y-94915118D01*
X115955252Y-94811661D01*
X116025034Y-94742000D01*
X117400874Y-94742000D01*
X117469741Y-94810987D01*
X117719946Y-94914882D01*
X117990865Y-94915118D01*
X118241252Y-94811661D01*
X118432987Y-94620259D01*
X118536882Y-94370054D01*
X118537118Y-94099135D01*
X118433661Y-93848748D01*
X118242259Y-93657013D01*
X117992054Y-93553118D01*
X117721135Y-93552882D01*
X117470748Y-93656339D01*
X117400966Y-93726000D01*
X116025126Y-93726000D01*
X115956259Y-93657013D01*
X115706054Y-93553118D01*
X115435135Y-93552882D01*
X115184748Y-93656339D01*
X114993013Y-93847741D01*
X114889118Y-94097946D01*
X114888882Y-94368865D01*
X107136000Y-94368865D01*
X107136000Y-91090750D01*
X107569000Y-91090750D01*
X107569000Y-91794910D01*
X107665673Y-92028299D01*
X107844302Y-92206927D01*
X108077691Y-92303600D01*
X108934250Y-92303600D01*
X109093000Y-92144850D01*
X109093000Y-90932000D01*
X109347000Y-90932000D01*
X109347000Y-92144850D01*
X109505750Y-92303600D01*
X110362309Y-92303600D01*
X110595698Y-92206927D01*
X110774327Y-92028299D01*
X110871000Y-91794910D01*
X110871000Y-91090750D01*
X110712250Y-90932000D01*
X109347000Y-90932000D01*
X109093000Y-90932000D01*
X107727750Y-90932000D01*
X107569000Y-91090750D01*
X107136000Y-91090750D01*
X107136000Y-89815090D01*
X107569000Y-89815090D01*
X107569000Y-90519250D01*
X107727750Y-90678000D01*
X109093000Y-90678000D01*
X109093000Y-90658000D01*
X109347000Y-90658000D01*
X109347000Y-90678000D01*
X110712250Y-90678000D01*
X110871000Y-90519250D01*
X110871000Y-89962001D01*
X111005865Y-89962118D01*
X111256252Y-89858661D01*
X111326034Y-89789000D01*
X112091536Y-89789000D01*
X112091536Y-90150000D01*
X112118103Y-90291190D01*
X112201546Y-90420865D01*
X112328866Y-90507859D01*
X112480000Y-90538464D01*
X114280000Y-90538464D01*
X114421190Y-90511897D01*
X114550865Y-90428454D01*
X114573210Y-90395750D01*
X114580090Y-90398600D01*
X115284250Y-90398600D01*
X115443000Y-90239850D01*
X115443000Y-89027000D01*
X115423000Y-89027000D01*
X115423000Y-88773000D01*
X115443000Y-88773000D01*
X115443000Y-88753000D01*
X115697000Y-88753000D01*
X115697000Y-88773000D01*
X115717000Y-88773000D01*
X115717000Y-89027000D01*
X115697000Y-89027000D01*
X115697000Y-90239850D01*
X115855750Y-90398600D01*
X116559910Y-90398600D01*
X116793299Y-90301927D01*
X116971927Y-90123298D01*
X117068600Y-89889909D01*
X117068600Y-89562993D01*
X117229935Y-89804448D01*
X117602000Y-90053054D01*
X117602000Y-90730874D01*
X117533013Y-90799741D01*
X117429118Y-91049946D01*
X117428882Y-91320865D01*
X117532339Y-91571252D01*
X117723741Y-91762987D01*
X117973946Y-91866882D01*
X118019761Y-91866922D01*
X117937118Y-92065946D01*
X117936882Y-92336865D01*
X118040339Y-92587252D01*
X118231741Y-92778987D01*
X118481946Y-92882882D01*
X118752865Y-92883118D01*
X119003252Y-92779661D01*
X119194987Y-92588259D01*
X119298882Y-92338054D01*
X119298968Y-92239452D01*
X119455555Y-92082865D01*
X120984882Y-92082865D01*
X121088339Y-92333252D01*
X121279741Y-92524987D01*
X121529946Y-92628882D01*
X121800865Y-92629118D01*
X122051252Y-92525661D01*
X122242987Y-92334259D01*
X122346882Y-92084054D01*
X122346968Y-91985452D01*
X123549210Y-90783211D01*
X123622790Y-90673090D01*
X123659331Y-90618403D01*
X123698000Y-90424000D01*
X123698000Y-90053054D01*
X123845000Y-89954832D01*
X123845000Y-90276310D01*
X123941673Y-90509699D01*
X124120302Y-90688327D01*
X124353691Y-90785000D01*
X125094250Y-90785000D01*
X125253000Y-90626250D01*
X125253000Y-89677000D01*
X125233000Y-89677000D01*
X125233000Y-89423000D01*
X125253000Y-89423000D01*
X125253000Y-89403000D01*
X125507000Y-89403000D01*
X125507000Y-89423000D01*
X125527000Y-89423000D01*
X125527000Y-89677000D01*
X125507000Y-89677000D01*
X125507000Y-90626250D01*
X125665750Y-90785000D01*
X126106566Y-90785000D01*
X125654283Y-91237283D01*
X125654281Y-91237286D01*
X125515067Y-91376500D01*
X124841000Y-91376500D01*
X124525095Y-91439337D01*
X124257283Y-91618283D01*
X124078337Y-91886095D01*
X124015500Y-92202000D01*
X124078337Y-92517905D01*
X124257283Y-92785717D01*
X124525095Y-92964663D01*
X124841000Y-93027500D01*
X125857000Y-93027500D01*
X126172906Y-92964663D01*
X126440717Y-92785717D01*
X126821714Y-92404719D01*
X126821717Y-92404717D01*
X127964717Y-91261717D01*
X127970550Y-91252987D01*
X128189268Y-91707036D01*
X128625680Y-92096954D01*
X129178087Y-92290184D01*
X129413000Y-92145924D01*
X129413000Y-90932000D01*
X129667000Y-90932000D01*
X129667000Y-92145924D01*
X129901913Y-92290184D01*
X130454320Y-92096954D01*
X130890732Y-91707036D01*
X131144709Y-91179791D01*
X131147358Y-91164026D01*
X131026217Y-90932000D01*
X129667000Y-90932000D01*
X129413000Y-90932000D01*
X129393000Y-90932000D01*
X129393000Y-90678000D01*
X129413000Y-90678000D01*
X129413000Y-90658000D01*
X129667000Y-90658000D01*
X129667000Y-90678000D01*
X131026217Y-90678000D01*
X131147358Y-90445974D01*
X131144709Y-90430209D01*
X130890732Y-89902964D01*
X130454320Y-89513046D01*
X130181757Y-89417704D01*
X130196057Y-89414860D01*
X130599834Y-89145065D01*
X130869629Y-88741288D01*
X130964369Y-88265000D01*
X130869629Y-87788712D01*
X130599834Y-87384935D01*
X130196057Y-87115140D01*
X129719769Y-87020400D01*
X129360231Y-87020400D01*
X128883943Y-87115140D01*
X128480166Y-87384935D01*
X128210371Y-87788712D01*
X128206500Y-87808173D01*
X128206500Y-86181827D01*
X128210371Y-86201288D01*
X128480166Y-86605065D01*
X128883943Y-86874860D01*
X129360231Y-86969600D01*
X129719769Y-86969600D01*
X130196057Y-86874860D01*
X130599834Y-86605065D01*
X130869629Y-86201288D01*
X130964369Y-85725000D01*
X130869629Y-85248712D01*
X130599834Y-84844935D01*
X130196057Y-84575140D01*
X129719769Y-84480400D01*
X129360231Y-84480400D01*
X128883943Y-84575140D01*
X128480166Y-84844935D01*
X128210371Y-85248712D01*
X128206500Y-85268173D01*
X128206500Y-83641827D01*
X128210371Y-83661288D01*
X128480166Y-84065065D01*
X128883943Y-84334860D01*
X129360231Y-84429600D01*
X129719769Y-84429600D01*
X130196057Y-84334860D01*
X130599834Y-84065065D01*
X130869629Y-83661288D01*
X130964369Y-83185000D01*
X130869629Y-82708712D01*
X130599834Y-82304935D01*
X130196057Y-82035140D01*
X129719769Y-81940400D01*
X129360231Y-81940400D01*
X128883943Y-82035140D01*
X128480166Y-82304935D01*
X128210371Y-82708712D01*
X128206500Y-82728173D01*
X128206500Y-81101827D01*
X128210371Y-81121288D01*
X128480166Y-81525065D01*
X128883943Y-81794860D01*
X129360231Y-81889600D01*
X129719769Y-81889600D01*
X130196057Y-81794860D01*
X130599834Y-81525065D01*
X130869629Y-81121288D01*
X130964369Y-80645000D01*
X130869629Y-80168712D01*
X130599834Y-79764935D01*
X130196057Y-79495140D01*
X129719769Y-79400400D01*
X129360231Y-79400400D01*
X128883943Y-79495140D01*
X128480166Y-79764935D01*
X128210371Y-80168712D01*
X128161066Y-80416584D01*
X128143663Y-80329094D01*
X127964717Y-80061283D01*
X126869717Y-78966283D01*
X126643027Y-78814813D01*
X126641897Y-78808810D01*
X126558454Y-78679135D01*
X126431134Y-78592141D01*
X126280000Y-78561536D01*
X124480000Y-78561536D01*
X124338810Y-78588103D01*
X124209135Y-78671546D01*
X124122141Y-78798866D01*
X124091536Y-78950000D01*
X124091536Y-80150000D01*
X124118103Y-80291190D01*
X124201546Y-80420865D01*
X124328866Y-80507859D01*
X124480000Y-80538464D01*
X126107030Y-80538464D01*
X126130102Y-80561536D01*
X124480000Y-80561536D01*
X124338810Y-80588103D01*
X124209135Y-80671546D01*
X124122141Y-80798866D01*
X124091536Y-80950000D01*
X124091536Y-82150000D01*
X124118103Y-82291190D01*
X124201546Y-82420865D01*
X124328866Y-82507859D01*
X124480000Y-82538464D01*
X126280000Y-82538464D01*
X126421190Y-82511897D01*
X126550865Y-82428454D01*
X126555500Y-82421670D01*
X126555500Y-82677117D01*
X126431134Y-82592141D01*
X126280000Y-82561536D01*
X124480000Y-82561536D01*
X124338810Y-82588103D01*
X124209135Y-82671546D01*
X124122141Y-82798866D01*
X124091536Y-82950000D01*
X124091536Y-84150000D01*
X124118103Y-84291190D01*
X124201546Y-84420865D01*
X124328866Y-84507859D01*
X124480000Y-84538464D01*
X126280000Y-84538464D01*
X126421190Y-84511897D01*
X126550865Y-84428454D01*
X126555500Y-84421670D01*
X126555500Y-84677117D01*
X126431134Y-84592141D01*
X126280000Y-84561536D01*
X124480000Y-84561536D01*
X124338810Y-84588103D01*
X124209135Y-84671546D01*
X124122141Y-84798866D01*
X124091536Y-84950000D01*
X124091536Y-85487686D01*
X124070065Y-85455552D01*
X123666288Y-85185757D01*
X123190000Y-85091017D01*
X122713712Y-85185757D01*
X122309935Y-85455552D01*
X122040140Y-85859329D01*
X121945400Y-86335617D01*
X121945400Y-86384383D01*
X122040140Y-86860671D01*
X122309935Y-87264448D01*
X122713712Y-87534243D01*
X123190000Y-87628983D01*
X123666288Y-87534243D01*
X124070065Y-87264448D01*
X124091536Y-87232314D01*
X124091536Y-88027686D01*
X124070065Y-87995552D01*
X123666288Y-87725757D01*
X123190000Y-87631017D01*
X122713712Y-87725757D01*
X122309935Y-87995552D01*
X122040140Y-88399329D01*
X121945400Y-88875617D01*
X121945400Y-88924383D01*
X122040140Y-89400671D01*
X122309935Y-89804448D01*
X122682000Y-90053054D01*
X122682000Y-90213579D01*
X121628613Y-91266967D01*
X121531135Y-91266882D01*
X121280748Y-91370339D01*
X121089013Y-91561741D01*
X120985118Y-91811946D01*
X120984882Y-92082865D01*
X119455555Y-92082865D01*
X119739210Y-91799210D01*
X119849331Y-91634403D01*
X119888000Y-91440000D01*
X119888000Y-89883336D01*
X120173712Y-90074243D01*
X120650000Y-90168983D01*
X121126288Y-90074243D01*
X121530065Y-89804448D01*
X121799860Y-89400671D01*
X121894600Y-88924383D01*
X121894600Y-88875617D01*
X121799860Y-88399329D01*
X121530065Y-87995552D01*
X121126288Y-87725757D01*
X120650000Y-87631017D01*
X120173712Y-87725757D01*
X119888000Y-87916664D01*
X119888000Y-87713420D01*
X120109849Y-87491571D01*
X120173712Y-87534243D01*
X120650000Y-87628983D01*
X121126288Y-87534243D01*
X121530065Y-87264448D01*
X121799860Y-86860671D01*
X121894600Y-86384383D01*
X121894600Y-86335617D01*
X121799860Y-85859329D01*
X121530065Y-85455552D01*
X121126288Y-85185757D01*
X120650000Y-85091017D01*
X120173712Y-85185757D01*
X119769935Y-85455552D01*
X119500140Y-85859329D01*
X119405400Y-86335617D01*
X119405400Y-86384383D01*
X119467583Y-86696997D01*
X119171160Y-86993420D01*
X119259860Y-86860671D01*
X119354600Y-86384383D01*
X119354600Y-86335617D01*
X119259860Y-85859329D01*
X118990065Y-85455552D01*
X118586288Y-85185757D01*
X118110000Y-85091017D01*
X117633712Y-85185757D01*
X117229935Y-85455552D01*
X116960140Y-85859329D01*
X116865400Y-86335617D01*
X116865400Y-86384383D01*
X116960140Y-86860671D01*
X117229935Y-87264448D01*
X117633712Y-87534243D01*
X118110000Y-87628983D01*
X118586288Y-87534243D01*
X118908627Y-87318863D01*
X118872000Y-87503000D01*
X118872000Y-87916664D01*
X118586288Y-87725757D01*
X118110000Y-87631017D01*
X117633712Y-87725757D01*
X117229935Y-87995552D01*
X117068600Y-88237007D01*
X117068600Y-87910091D01*
X116971927Y-87676702D01*
X116793299Y-87498073D01*
X116559910Y-87401400D01*
X116245102Y-87401400D01*
X116450065Y-87264448D01*
X116719860Y-86860671D01*
X116814600Y-86384383D01*
X116814600Y-86335617D01*
X116719860Y-85859329D01*
X116450065Y-85455552D01*
X116046288Y-85185757D01*
X115570000Y-85091017D01*
X115093712Y-85185757D01*
X114689935Y-85455552D01*
X114668464Y-85487686D01*
X114668464Y-84950000D01*
X114641897Y-84808810D01*
X114558454Y-84679135D01*
X114431134Y-84592141D01*
X114280000Y-84561536D01*
X112480000Y-84561536D01*
X112338810Y-84588103D01*
X112209135Y-84671546D01*
X112122141Y-84798866D01*
X112091536Y-84950000D01*
X112091536Y-86150000D01*
X112118103Y-86291190D01*
X112201546Y-86420865D01*
X112328866Y-86507859D01*
X112480000Y-86538464D01*
X114280000Y-86538464D01*
X114353305Y-86524671D01*
X114364023Y-86578551D01*
X114280000Y-86561536D01*
X112480000Y-86561536D01*
X112338810Y-86588103D01*
X112209135Y-86671546D01*
X112122141Y-86798866D01*
X112091536Y-86950000D01*
X112091536Y-88150000D01*
X112118103Y-88291190D01*
X112201546Y-88420865D01*
X112328866Y-88507859D01*
X112480000Y-88538464D01*
X114071400Y-88538464D01*
X114071400Y-88561536D01*
X112480000Y-88561536D01*
X112338810Y-88588103D01*
X112209135Y-88671546D01*
X112139814Y-88773000D01*
X111326126Y-88773000D01*
X111257259Y-88704013D01*
X111007054Y-88600118D01*
X110736135Y-88599882D01*
X110563574Y-88671182D01*
X110644369Y-88265000D01*
X110549629Y-87788712D01*
X110279834Y-87384935D01*
X109876057Y-87115140D01*
X109399769Y-87020400D01*
X109040231Y-87020400D01*
X108563943Y-87115140D01*
X108160166Y-87384935D01*
X107890371Y-87788712D01*
X107795631Y-88265000D01*
X107890371Y-88741288D01*
X108160166Y-89145065D01*
X108401621Y-89306400D01*
X108077691Y-89306400D01*
X107844302Y-89403073D01*
X107665673Y-89581701D01*
X107569000Y-89815090D01*
X107136000Y-89815090D01*
X107136000Y-85725000D01*
X107795631Y-85725000D01*
X107890371Y-86201288D01*
X108160166Y-86605065D01*
X108563943Y-86874860D01*
X109040231Y-86969600D01*
X109399769Y-86969600D01*
X109876057Y-86874860D01*
X110279834Y-86605065D01*
X110549629Y-86201288D01*
X110644369Y-85725000D01*
X110549629Y-85248712D01*
X110279834Y-84844935D01*
X109876057Y-84575140D01*
X109399769Y-84480400D01*
X109040231Y-84480400D01*
X108563943Y-84575140D01*
X108160166Y-84844935D01*
X107890371Y-85248712D01*
X107795631Y-85725000D01*
X107136000Y-85725000D01*
X107136000Y-83185000D01*
X107795631Y-83185000D01*
X107890371Y-83661288D01*
X108160166Y-84065065D01*
X108563943Y-84334860D01*
X109040231Y-84429600D01*
X109399769Y-84429600D01*
X109876057Y-84334860D01*
X110279834Y-84065065D01*
X110549629Y-83661288D01*
X110644369Y-83185000D01*
X110597625Y-82950000D01*
X112091536Y-82950000D01*
X112091536Y-84150000D01*
X112118103Y-84291190D01*
X112201546Y-84420865D01*
X112328866Y-84507859D01*
X112480000Y-84538464D01*
X114280000Y-84538464D01*
X114421190Y-84511897D01*
X114550865Y-84428454D01*
X114637859Y-84301134D01*
X114668464Y-84150000D01*
X114668464Y-82950000D01*
X114641897Y-82808810D01*
X114562142Y-82684865D01*
X120476882Y-82684865D01*
X120580339Y-82935252D01*
X120771741Y-83126987D01*
X121021946Y-83230882D01*
X121292865Y-83231118D01*
X121543252Y-83127661D01*
X121613034Y-83058000D01*
X122861874Y-83058000D01*
X122930741Y-83126987D01*
X123180946Y-83230882D01*
X123451865Y-83231118D01*
X123702252Y-83127661D01*
X123893987Y-82936259D01*
X123997882Y-82686054D01*
X123998118Y-82415135D01*
X123894661Y-82164748D01*
X123703259Y-81973013D01*
X123453054Y-81869118D01*
X123182135Y-81868882D01*
X122931748Y-81972339D01*
X122861966Y-82042000D01*
X121613126Y-82042000D01*
X121544259Y-81973013D01*
X121294054Y-81869118D01*
X121023135Y-81868882D01*
X120772748Y-81972339D01*
X120581013Y-82163741D01*
X120477118Y-82413946D01*
X120476882Y-82684865D01*
X114562142Y-82684865D01*
X114558454Y-82679135D01*
X114431134Y-82592141D01*
X114280000Y-82561536D01*
X112480000Y-82561536D01*
X112338810Y-82588103D01*
X112209135Y-82671546D01*
X112122141Y-82798866D01*
X112091536Y-82950000D01*
X110597625Y-82950000D01*
X110549629Y-82708712D01*
X110279834Y-82304935D01*
X109876057Y-82035140D01*
X109399769Y-81940400D01*
X109040231Y-81940400D01*
X108563943Y-82035140D01*
X108160166Y-82304935D01*
X107890371Y-82708712D01*
X107795631Y-83185000D01*
X107136000Y-83185000D01*
X107136000Y-80645000D01*
X107795631Y-80645000D01*
X107890371Y-81121288D01*
X108160166Y-81525065D01*
X108563943Y-81794860D01*
X109040231Y-81889600D01*
X109399769Y-81889600D01*
X109876057Y-81794860D01*
X110279834Y-81525065D01*
X110549629Y-81121288D01*
X110583700Y-80950000D01*
X112091536Y-80950000D01*
X112091536Y-82150000D01*
X112118103Y-82291190D01*
X112201546Y-82420865D01*
X112328866Y-82507859D01*
X112480000Y-82538464D01*
X114280000Y-82538464D01*
X114421190Y-82511897D01*
X114550865Y-82428454D01*
X114637859Y-82301134D01*
X114668464Y-82150000D01*
X114668464Y-80950000D01*
X114641897Y-80808810D01*
X114558454Y-80679135D01*
X114431134Y-80592141D01*
X114280000Y-80561536D01*
X112480000Y-80561536D01*
X112338810Y-80588103D01*
X112209135Y-80671546D01*
X112122141Y-80798866D01*
X112091536Y-80950000D01*
X110583700Y-80950000D01*
X110644369Y-80645000D01*
X110549629Y-80168712D01*
X110279834Y-79764935D01*
X109876057Y-79495140D01*
X109399769Y-79400400D01*
X109040231Y-79400400D01*
X108563943Y-79495140D01*
X108160166Y-79764935D01*
X107890371Y-80168712D01*
X107795631Y-80645000D01*
X107136000Y-80645000D01*
X107136000Y-78105000D01*
X107795631Y-78105000D01*
X107890371Y-78581288D01*
X108160166Y-78985065D01*
X108563943Y-79254860D01*
X109040231Y-79349600D01*
X109399769Y-79349600D01*
X109876057Y-79254860D01*
X110279834Y-78985065D01*
X110303263Y-78950000D01*
X112091536Y-78950000D01*
X112091536Y-80150000D01*
X112118103Y-80291190D01*
X112201546Y-80420865D01*
X112328866Y-80507859D01*
X112480000Y-80538464D01*
X114280000Y-80538464D01*
X114421190Y-80511897D01*
X114550865Y-80428454D01*
X114637859Y-80301134D01*
X114668464Y-80150000D01*
X114668464Y-78950000D01*
X114641897Y-78808810D01*
X114558454Y-78679135D01*
X114431134Y-78592141D01*
X114280000Y-78561536D01*
X112480000Y-78561536D01*
X112338810Y-78588103D01*
X112209135Y-78671546D01*
X112122141Y-78798866D01*
X112091536Y-78950000D01*
X110303263Y-78950000D01*
X110549629Y-78581288D01*
X110644369Y-78105000D01*
X110549629Y-77628712D01*
X110279834Y-77224935D01*
X109876057Y-76955140D01*
X109399769Y-76860400D01*
X109040231Y-76860400D01*
X108563943Y-76955140D01*
X108160166Y-77224935D01*
X107890371Y-77628712D01*
X107795631Y-78105000D01*
X107136000Y-78105000D01*
X107136000Y-76656000D01*
X112233294Y-76656000D01*
X112209135Y-76671546D01*
X112209135Y-76671546D01*
G37*
X112209135Y-76671546D02*
X112122141Y-76798866D01*
X112091536Y-76950000D01*
X112091536Y-78150000D01*
X112118103Y-78291190D01*
X112201546Y-78420865D01*
X112328866Y-78507859D01*
X112480000Y-78538464D01*
X114280000Y-78538464D01*
X114421190Y-78511897D01*
X114550865Y-78428454D01*
X114637859Y-78301134D01*
X114668464Y-78150000D01*
X114668464Y-76950000D01*
X114641897Y-76808810D01*
X114558454Y-76679135D01*
X114524595Y-76656000D01*
X124233294Y-76656000D01*
X124209135Y-76671546D01*
X124122141Y-76798866D01*
X124091536Y-76950000D01*
X124091536Y-78150000D01*
X124118103Y-78291190D01*
X124201546Y-78420865D01*
X124328866Y-78507859D01*
X124480000Y-78538464D01*
X126280000Y-78538464D01*
X126421190Y-78511897D01*
X126550865Y-78428454D01*
X126637859Y-78301134D01*
X126668464Y-78150000D01*
X126668464Y-77241400D01*
X128135536Y-77241400D01*
X128135536Y-78968600D01*
X128162103Y-79109790D01*
X128245546Y-79239465D01*
X128372866Y-79326459D01*
X128524000Y-79357064D01*
X130556000Y-79357064D01*
X130697190Y-79330497D01*
X130826865Y-79247054D01*
X130913859Y-79119734D01*
X130944464Y-78968600D01*
X130944464Y-77241400D01*
X130917897Y-77100210D01*
X130834454Y-76970535D01*
X130707134Y-76883541D01*
X130556000Y-76852936D01*
X128524000Y-76852936D01*
X128382810Y-76879503D01*
X128253135Y-76962946D01*
X128166141Y-77090266D01*
X128135536Y-77241400D01*
X126668464Y-77241400D01*
X126668464Y-76950000D01*
X126641897Y-76808810D01*
X126558454Y-76679135D01*
X126524595Y-76656000D01*
X131624000Y-76656000D01*
X131624000Y-101144000D01*
X127058625Y-101144000D01*
X127131927Y-101070698D01*
X127228600Y-100837309D01*
X127228600Y-99980750D01*
X127069850Y-99822000D01*
X125857000Y-99822000D01*
X125857000Y-99842000D01*
X125603000Y-99842000D01*
X125603000Y-99822000D01*
X125583000Y-99822000D01*
X125583000Y-99568000D01*
X125603000Y-99568000D01*
X125603000Y-98202750D01*
X125857000Y-98202750D01*
X125857000Y-99568000D01*
X127069850Y-99568000D01*
X127228600Y-99409250D01*
X127228600Y-98552691D01*
X127131927Y-98319302D01*
X126953299Y-98140673D01*
X126719910Y-98044000D01*
X126015750Y-98044000D01*
X125857000Y-98202750D01*
X125603000Y-98202750D01*
X125444250Y-98044000D01*
X124740090Y-98044000D01*
X124506701Y-98140673D01*
X124328073Y-98319302D01*
X124231400Y-98552691D01*
X124231400Y-98876621D01*
X124070065Y-98635166D01*
X123666288Y-98365371D01*
X123190000Y-98270631D01*
X122713712Y-98365371D01*
X122309935Y-98635166D01*
X122040140Y-99038943D01*
X121945400Y-99515231D01*
X121945400Y-99874769D01*
X122040140Y-100351057D01*
X122309935Y-100754834D01*
X122713712Y-101024629D01*
X123190000Y-101119369D01*
X123666288Y-101024629D01*
X124070065Y-100754834D01*
X124231400Y-100513379D01*
X124231400Y-100837309D01*
X124328073Y-101070698D01*
X124401375Y-101144000D01*
X107136000Y-101144000D01*
X107136000Y-99515231D01*
X111785400Y-99515231D01*
X111785400Y-99874769D01*
X111880140Y-100351057D01*
X112149935Y-100754834D01*
X112553712Y-101024629D01*
X113030000Y-101119369D01*
X113506288Y-101024629D01*
X113910065Y-100754834D01*
X114179860Y-100351057D01*
X114274600Y-99874769D01*
X114274600Y-99515231D01*
X114325400Y-99515231D01*
X114325400Y-99874769D01*
X114420140Y-100351057D01*
X114689935Y-100754834D01*
X115093712Y-101024629D01*
X115570000Y-101119369D01*
X116046288Y-101024629D01*
X116450065Y-100754834D01*
X116719860Y-100351057D01*
X116814600Y-99874769D01*
X116814600Y-99515231D01*
X116865400Y-99515231D01*
X116865400Y-99874769D01*
X116960140Y-100351057D01*
X117229935Y-100754834D01*
X117633712Y-101024629D01*
X118110000Y-101119369D01*
X118586288Y-101024629D01*
X118990065Y-100754834D01*
X119259860Y-100351057D01*
X119354600Y-99874769D01*
X119354600Y-99515231D01*
X119405400Y-99515231D01*
X119405400Y-99874769D01*
X119500140Y-100351057D01*
X119769935Y-100754834D01*
X120173712Y-101024629D01*
X120650000Y-101119369D01*
X121126288Y-101024629D01*
X121530065Y-100754834D01*
X121799860Y-100351057D01*
X121894600Y-99874769D01*
X121894600Y-99515231D01*
X121799860Y-99038943D01*
X121530065Y-98635166D01*
X121126288Y-98365371D01*
X120650000Y-98270631D01*
X120173712Y-98365371D01*
X119769935Y-98635166D01*
X119500140Y-99038943D01*
X119405400Y-99515231D01*
X119354600Y-99515231D01*
X119259860Y-99038943D01*
X118990065Y-98635166D01*
X118586288Y-98365371D01*
X118110000Y-98270631D01*
X117633712Y-98365371D01*
X117229935Y-98635166D01*
X116960140Y-99038943D01*
X116865400Y-99515231D01*
X116814600Y-99515231D01*
X116719860Y-99038943D01*
X116450065Y-98635166D01*
X116046288Y-98365371D01*
X115570000Y-98270631D01*
X115093712Y-98365371D01*
X114689935Y-98635166D01*
X114420140Y-99038943D01*
X114325400Y-99515231D01*
X114274600Y-99515231D01*
X114179860Y-99038943D01*
X113910065Y-98635166D01*
X113506288Y-98365371D01*
X113030000Y-98270631D01*
X112553712Y-98365371D01*
X112149935Y-98635166D01*
X111880140Y-99038943D01*
X111785400Y-99515231D01*
X107136000Y-99515231D01*
X107136000Y-94368865D01*
X114888882Y-94368865D01*
X114992339Y-94619252D01*
X115183741Y-94810987D01*
X115433946Y-94914882D01*
X115704865Y-94915118D01*
X115955252Y-94811661D01*
X116025034Y-94742000D01*
X117400874Y-94742000D01*
X117469741Y-94810987D01*
X117719946Y-94914882D01*
X117990865Y-94915118D01*
X118241252Y-94811661D01*
X118432987Y-94620259D01*
X118536882Y-94370054D01*
X118537118Y-94099135D01*
X118433661Y-93848748D01*
X118242259Y-93657013D01*
X117992054Y-93553118D01*
X117721135Y-93552882D01*
X117470748Y-93656339D01*
X117400966Y-93726000D01*
X116025126Y-93726000D01*
X115956259Y-93657013D01*
X115706054Y-93553118D01*
X115435135Y-93552882D01*
X115184748Y-93656339D01*
X114993013Y-93847741D01*
X114889118Y-94097946D01*
X114888882Y-94368865D01*
X107136000Y-94368865D01*
X107136000Y-91090750D01*
X107569000Y-91090750D01*
X107569000Y-91794910D01*
X107665673Y-92028299D01*
X107844302Y-92206927D01*
X108077691Y-92303600D01*
X108934250Y-92303600D01*
X109093000Y-92144850D01*
X109093000Y-90932000D01*
X109347000Y-90932000D01*
X109347000Y-92144850D01*
X109505750Y-92303600D01*
X110362309Y-92303600D01*
X110595698Y-92206927D01*
X110774327Y-92028299D01*
X110871000Y-91794910D01*
X110871000Y-91090750D01*
X110712250Y-90932000D01*
X109347000Y-90932000D01*
X109093000Y-90932000D01*
X107727750Y-90932000D01*
X107569000Y-91090750D01*
X107136000Y-91090750D01*
X107136000Y-89815090D01*
X107569000Y-89815090D01*
X107569000Y-90519250D01*
X107727750Y-90678000D01*
X109093000Y-90678000D01*
X109093000Y-90658000D01*
X109347000Y-90658000D01*
X109347000Y-90678000D01*
X110712250Y-90678000D01*
X110871000Y-90519250D01*
X110871000Y-89962001D01*
X111005865Y-89962118D01*
X111256252Y-89858661D01*
X111326034Y-89789000D01*
X112091536Y-89789000D01*
X112091536Y-90150000D01*
X112118103Y-90291190D01*
X112201546Y-90420865D01*
X112328866Y-90507859D01*
X112480000Y-90538464D01*
X114280000Y-90538464D01*
X114421190Y-90511897D01*
X114550865Y-90428454D01*
X114573210Y-90395750D01*
X114580090Y-90398600D01*
X115284250Y-90398600D01*
X115443000Y-90239850D01*
X115443000Y-89027000D01*
X115423000Y-89027000D01*
X115423000Y-88773000D01*
X115443000Y-88773000D01*
X115443000Y-88753000D01*
X115697000Y-88753000D01*
X115697000Y-88773000D01*
X115717000Y-88773000D01*
X115717000Y-89027000D01*
X115697000Y-89027000D01*
X115697000Y-90239850D01*
X115855750Y-90398600D01*
X116559910Y-90398600D01*
X116793299Y-90301927D01*
X116971927Y-90123298D01*
X117068600Y-89889909D01*
X117068600Y-89562993D01*
X117229935Y-89804448D01*
X117602000Y-90053054D01*
X117602000Y-90730874D01*
X117533013Y-90799741D01*
X117429118Y-91049946D01*
X117428882Y-91320865D01*
X117532339Y-91571252D01*
X117723741Y-91762987D01*
X117973946Y-91866882D01*
X118019761Y-91866922D01*
X117937118Y-92065946D01*
X117936882Y-92336865D01*
X118040339Y-92587252D01*
X118231741Y-92778987D01*
X118481946Y-92882882D01*
X118752865Y-92883118D01*
X119003252Y-92779661D01*
X119194987Y-92588259D01*
X119298882Y-92338054D01*
X119298968Y-92239452D01*
X119455555Y-92082865D01*
X120984882Y-92082865D01*
X121088339Y-92333252D01*
X121279741Y-92524987D01*
X121529946Y-92628882D01*
X121800865Y-92629118D01*
X122051252Y-92525661D01*
X122242987Y-92334259D01*
X122346882Y-92084054D01*
X122346968Y-91985452D01*
X123549210Y-90783211D01*
X123622790Y-90673090D01*
X123659331Y-90618403D01*
X123698000Y-90424000D01*
X123698000Y-90053054D01*
X123845000Y-89954832D01*
X123845000Y-90276310D01*
X123941673Y-90509699D01*
X124120302Y-90688327D01*
X124353691Y-90785000D01*
X125094250Y-90785000D01*
X125253000Y-90626250D01*
X125253000Y-89677000D01*
X125233000Y-89677000D01*
X125233000Y-89423000D01*
X125253000Y-89423000D01*
X125253000Y-89403000D01*
X125507000Y-89403000D01*
X125507000Y-89423000D01*
X125527000Y-89423000D01*
X125527000Y-89677000D01*
X125507000Y-89677000D01*
X125507000Y-90626250D01*
X125665750Y-90785000D01*
X126106566Y-90785000D01*
X125654283Y-91237283D01*
X125654281Y-91237286D01*
X125515067Y-91376500D01*
X124841000Y-91376500D01*
X124525095Y-91439337D01*
X124257283Y-91618283D01*
X124078337Y-91886095D01*
X124015500Y-92202000D01*
X124078337Y-92517905D01*
X124257283Y-92785717D01*
X124525095Y-92964663D01*
X124841000Y-93027500D01*
X125857000Y-93027500D01*
X126172906Y-92964663D01*
X126440717Y-92785717D01*
X126821714Y-92404719D01*
X126821717Y-92404717D01*
X127964717Y-91261717D01*
X127970550Y-91252987D01*
X128189268Y-91707036D01*
X128625680Y-92096954D01*
X129178087Y-92290184D01*
X129413000Y-92145924D01*
X129413000Y-90932000D01*
X129667000Y-90932000D01*
X129667000Y-92145924D01*
X129901913Y-92290184D01*
X130454320Y-92096954D01*
X130890732Y-91707036D01*
X131144709Y-91179791D01*
X131147358Y-91164026D01*
X131026217Y-90932000D01*
X129667000Y-90932000D01*
X129413000Y-90932000D01*
X129393000Y-90932000D01*
X129393000Y-90678000D01*
X129413000Y-90678000D01*
X129413000Y-90658000D01*
X129667000Y-90658000D01*
X129667000Y-90678000D01*
X131026217Y-90678000D01*
X131147358Y-90445974D01*
X131144709Y-90430209D01*
X130890732Y-89902964D01*
X130454320Y-89513046D01*
X130181757Y-89417704D01*
X130196057Y-89414860D01*
X130599834Y-89145065D01*
X130869629Y-88741288D01*
X130964369Y-88265000D01*
X130869629Y-87788712D01*
X130599834Y-87384935D01*
X130196057Y-87115140D01*
X129719769Y-87020400D01*
X129360231Y-87020400D01*
X128883943Y-87115140D01*
X128480166Y-87384935D01*
X128210371Y-87788712D01*
X128206500Y-87808173D01*
X128206500Y-86181827D01*
X128210371Y-86201288D01*
X128480166Y-86605065D01*
X128883943Y-86874860D01*
X129360231Y-86969600D01*
X129719769Y-86969600D01*
X130196057Y-86874860D01*
X130599834Y-86605065D01*
X130869629Y-86201288D01*
X130964369Y-85725000D01*
X130869629Y-85248712D01*
X130599834Y-84844935D01*
X130196057Y-84575140D01*
X129719769Y-84480400D01*
X129360231Y-84480400D01*
X128883943Y-84575140D01*
X128480166Y-84844935D01*
X128210371Y-85248712D01*
X128206500Y-85268173D01*
X128206500Y-83641827D01*
X128210371Y-83661288D01*
X128480166Y-84065065D01*
X128883943Y-84334860D01*
X129360231Y-84429600D01*
X129719769Y-84429600D01*
X130196057Y-84334860D01*
X130599834Y-84065065D01*
X130869629Y-83661288D01*
X130964369Y-83185000D01*
X130869629Y-82708712D01*
X130599834Y-82304935D01*
X130196057Y-82035140D01*
X129719769Y-81940400D01*
X129360231Y-81940400D01*
X128883943Y-82035140D01*
X128480166Y-82304935D01*
X128210371Y-82708712D01*
X128206500Y-82728173D01*
X128206500Y-81101827D01*
X128210371Y-81121288D01*
X128480166Y-81525065D01*
X128883943Y-81794860D01*
X129360231Y-81889600D01*
X129719769Y-81889600D01*
X130196057Y-81794860D01*
X130599834Y-81525065D01*
X130869629Y-81121288D01*
X130964369Y-80645000D01*
X130869629Y-80168712D01*
X130599834Y-79764935D01*
X130196057Y-79495140D01*
X129719769Y-79400400D01*
X129360231Y-79400400D01*
X128883943Y-79495140D01*
X128480166Y-79764935D01*
X128210371Y-80168712D01*
X128161066Y-80416584D01*
X128143663Y-80329094D01*
X127964717Y-80061283D01*
X126869717Y-78966283D01*
X126643027Y-78814813D01*
X126641897Y-78808810D01*
X126558454Y-78679135D01*
X126431134Y-78592141D01*
X126280000Y-78561536D01*
X124480000Y-78561536D01*
X124338810Y-78588103D01*
X124209135Y-78671546D01*
X124122141Y-78798866D01*
X124091536Y-78950000D01*
X124091536Y-80150000D01*
X124118103Y-80291190D01*
X124201546Y-80420865D01*
X124328866Y-80507859D01*
X124480000Y-80538464D01*
X126107030Y-80538464D01*
X126130102Y-80561536D01*
X124480000Y-80561536D01*
X124338810Y-80588103D01*
X124209135Y-80671546D01*
X124122141Y-80798866D01*
X124091536Y-80950000D01*
X124091536Y-82150000D01*
X124118103Y-82291190D01*
X124201546Y-82420865D01*
X124328866Y-82507859D01*
X124480000Y-82538464D01*
X126280000Y-82538464D01*
X126421190Y-82511897D01*
X126550865Y-82428454D01*
X126555500Y-82421670D01*
X126555500Y-82677117D01*
X126431134Y-82592141D01*
X126280000Y-82561536D01*
X124480000Y-82561536D01*
X124338810Y-82588103D01*
X124209135Y-82671546D01*
X124122141Y-82798866D01*
X124091536Y-82950000D01*
X124091536Y-84150000D01*
X124118103Y-84291190D01*
X124201546Y-84420865D01*
X124328866Y-84507859D01*
X124480000Y-84538464D01*
X126280000Y-84538464D01*
X126421190Y-84511897D01*
X126550865Y-84428454D01*
X126555500Y-84421670D01*
X126555500Y-84677117D01*
X126431134Y-84592141D01*
X126280000Y-84561536D01*
X124480000Y-84561536D01*
X124338810Y-84588103D01*
X124209135Y-84671546D01*
X124122141Y-84798866D01*
X124091536Y-84950000D01*
X124091536Y-85487686D01*
X124070065Y-85455552D01*
X123666288Y-85185757D01*
X123190000Y-85091017D01*
X122713712Y-85185757D01*
X122309935Y-85455552D01*
X122040140Y-85859329D01*
X121945400Y-86335617D01*
X121945400Y-86384383D01*
X122040140Y-86860671D01*
X122309935Y-87264448D01*
X122713712Y-87534243D01*
X123190000Y-87628983D01*
X123666288Y-87534243D01*
X124070065Y-87264448D01*
X124091536Y-87232314D01*
X124091536Y-88027686D01*
X124070065Y-87995552D01*
X123666288Y-87725757D01*
X123190000Y-87631017D01*
X122713712Y-87725757D01*
X122309935Y-87995552D01*
X122040140Y-88399329D01*
X121945400Y-88875617D01*
X121945400Y-88924383D01*
X122040140Y-89400671D01*
X122309935Y-89804448D01*
X122682000Y-90053054D01*
X122682000Y-90213579D01*
X121628613Y-91266967D01*
X121531135Y-91266882D01*
X121280748Y-91370339D01*
X121089013Y-91561741D01*
X120985118Y-91811946D01*
X120984882Y-92082865D01*
X119455555Y-92082865D01*
X119739210Y-91799210D01*
X119849331Y-91634403D01*
X119888000Y-91440000D01*
X119888000Y-89883336D01*
X120173712Y-90074243D01*
X120650000Y-90168983D01*
X121126288Y-90074243D01*
X121530065Y-89804448D01*
X121799860Y-89400671D01*
X121894600Y-88924383D01*
X121894600Y-88875617D01*
X121799860Y-88399329D01*
X121530065Y-87995552D01*
X121126288Y-87725757D01*
X120650000Y-87631017D01*
X120173712Y-87725757D01*
X119888000Y-87916664D01*
X119888000Y-87713420D01*
X120109849Y-87491571D01*
X120173712Y-87534243D01*
X120650000Y-87628983D01*
X121126288Y-87534243D01*
X121530065Y-87264448D01*
X121799860Y-86860671D01*
X121894600Y-86384383D01*
X121894600Y-86335617D01*
X121799860Y-85859329D01*
X121530065Y-85455552D01*
X121126288Y-85185757D01*
X120650000Y-85091017D01*
X120173712Y-85185757D01*
X119769935Y-85455552D01*
X119500140Y-85859329D01*
X119405400Y-86335617D01*
X119405400Y-86384383D01*
X119467583Y-86696997D01*
X119171160Y-86993420D01*
X119259860Y-86860671D01*
X119354600Y-86384383D01*
X119354600Y-86335617D01*
X119259860Y-85859329D01*
X118990065Y-85455552D01*
X118586288Y-85185757D01*
X118110000Y-85091017D01*
X117633712Y-85185757D01*
X117229935Y-85455552D01*
X116960140Y-85859329D01*
X116865400Y-86335617D01*
X116865400Y-86384383D01*
X116960140Y-86860671D01*
X117229935Y-87264448D01*
X117633712Y-87534243D01*
X118110000Y-87628983D01*
X118586288Y-87534243D01*
X118908627Y-87318863D01*
X118872000Y-87503000D01*
X118872000Y-87916664D01*
X118586288Y-87725757D01*
X118110000Y-87631017D01*
X117633712Y-87725757D01*
X117229935Y-87995552D01*
X117068600Y-88237007D01*
X117068600Y-87910091D01*
X116971927Y-87676702D01*
X116793299Y-87498073D01*
X116559910Y-87401400D01*
X116245102Y-87401400D01*
X116450065Y-87264448D01*
X116719860Y-86860671D01*
X116814600Y-86384383D01*
X116814600Y-86335617D01*
X116719860Y-85859329D01*
X116450065Y-85455552D01*
X116046288Y-85185757D01*
X115570000Y-85091017D01*
X115093712Y-85185757D01*
X114689935Y-85455552D01*
X114668464Y-85487686D01*
X114668464Y-84950000D01*
X114641897Y-84808810D01*
X114558454Y-84679135D01*
X114431134Y-84592141D01*
X114280000Y-84561536D01*
X112480000Y-84561536D01*
X112338810Y-84588103D01*
X112209135Y-84671546D01*
X112122141Y-84798866D01*
X112091536Y-84950000D01*
X112091536Y-86150000D01*
X112118103Y-86291190D01*
X112201546Y-86420865D01*
X112328866Y-86507859D01*
X112480000Y-86538464D01*
X114280000Y-86538464D01*
X114353305Y-86524671D01*
X114364023Y-86578551D01*
X114280000Y-86561536D01*
X112480000Y-86561536D01*
X112338810Y-86588103D01*
X112209135Y-86671546D01*
X112122141Y-86798866D01*
X112091536Y-86950000D01*
X112091536Y-88150000D01*
X112118103Y-88291190D01*
X112201546Y-88420865D01*
X112328866Y-88507859D01*
X112480000Y-88538464D01*
X114071400Y-88538464D01*
X114071400Y-88561536D01*
X112480000Y-88561536D01*
X112338810Y-88588103D01*
X112209135Y-88671546D01*
X112139814Y-88773000D01*
X111326126Y-88773000D01*
X111257259Y-88704013D01*
X111007054Y-88600118D01*
X110736135Y-88599882D01*
X110563574Y-88671182D01*
X110644369Y-88265000D01*
X110549629Y-87788712D01*
X110279834Y-87384935D01*
X109876057Y-87115140D01*
X109399769Y-87020400D01*
X109040231Y-87020400D01*
X108563943Y-87115140D01*
X108160166Y-87384935D01*
X107890371Y-87788712D01*
X107795631Y-88265000D01*
X107890371Y-88741288D01*
X108160166Y-89145065D01*
X108401621Y-89306400D01*
X108077691Y-89306400D01*
X107844302Y-89403073D01*
X107665673Y-89581701D01*
X107569000Y-89815090D01*
X107136000Y-89815090D01*
X107136000Y-85725000D01*
X107795631Y-85725000D01*
X107890371Y-86201288D01*
X108160166Y-86605065D01*
X108563943Y-86874860D01*
X109040231Y-86969600D01*
X109399769Y-86969600D01*
X109876057Y-86874860D01*
X110279834Y-86605065D01*
X110549629Y-86201288D01*
X110644369Y-85725000D01*
X110549629Y-85248712D01*
X110279834Y-84844935D01*
X109876057Y-84575140D01*
X109399769Y-84480400D01*
X109040231Y-84480400D01*
X108563943Y-84575140D01*
X108160166Y-84844935D01*
X107890371Y-85248712D01*
X107795631Y-85725000D01*
X107136000Y-85725000D01*
X107136000Y-83185000D01*
X107795631Y-83185000D01*
X107890371Y-83661288D01*
X108160166Y-84065065D01*
X108563943Y-84334860D01*
X109040231Y-84429600D01*
X109399769Y-84429600D01*
X109876057Y-84334860D01*
X110279834Y-84065065D01*
X110549629Y-83661288D01*
X110644369Y-83185000D01*
X110597625Y-82950000D01*
X112091536Y-82950000D01*
X112091536Y-84150000D01*
X112118103Y-84291190D01*
X112201546Y-84420865D01*
X112328866Y-84507859D01*
X112480000Y-84538464D01*
X114280000Y-84538464D01*
X114421190Y-84511897D01*
X114550865Y-84428454D01*
X114637859Y-84301134D01*
X114668464Y-84150000D01*
X114668464Y-82950000D01*
X114641897Y-82808810D01*
X114562142Y-82684865D01*
X120476882Y-82684865D01*
X120580339Y-82935252D01*
X120771741Y-83126987D01*
X121021946Y-83230882D01*
X121292865Y-83231118D01*
X121543252Y-83127661D01*
X121613034Y-83058000D01*
X122861874Y-83058000D01*
X122930741Y-83126987D01*
X123180946Y-83230882D01*
X123451865Y-83231118D01*
X123702252Y-83127661D01*
X123893987Y-82936259D01*
X123997882Y-82686054D01*
X123998118Y-82415135D01*
X123894661Y-82164748D01*
X123703259Y-81973013D01*
X123453054Y-81869118D01*
X123182135Y-81868882D01*
X122931748Y-81972339D01*
X122861966Y-82042000D01*
X121613126Y-82042000D01*
X121544259Y-81973013D01*
X121294054Y-81869118D01*
X121023135Y-81868882D01*
X120772748Y-81972339D01*
X120581013Y-82163741D01*
X120477118Y-82413946D01*
X120476882Y-82684865D01*
X114562142Y-82684865D01*
X114558454Y-82679135D01*
X114431134Y-82592141D01*
X114280000Y-82561536D01*
X112480000Y-82561536D01*
X112338810Y-82588103D01*
X112209135Y-82671546D01*
X112122141Y-82798866D01*
X112091536Y-82950000D01*
X110597625Y-82950000D01*
X110549629Y-82708712D01*
X110279834Y-82304935D01*
X109876057Y-82035140D01*
X109399769Y-81940400D01*
X109040231Y-81940400D01*
X108563943Y-82035140D01*
X108160166Y-82304935D01*
X107890371Y-82708712D01*
X107795631Y-83185000D01*
X107136000Y-83185000D01*
X107136000Y-80645000D01*
X107795631Y-80645000D01*
X107890371Y-81121288D01*
X108160166Y-81525065D01*
X108563943Y-81794860D01*
X109040231Y-81889600D01*
X109399769Y-81889600D01*
X109876057Y-81794860D01*
X110279834Y-81525065D01*
X110549629Y-81121288D01*
X110583700Y-80950000D01*
X112091536Y-80950000D01*
X112091536Y-82150000D01*
X112118103Y-82291190D01*
X112201546Y-82420865D01*
X112328866Y-82507859D01*
X112480000Y-82538464D01*
X114280000Y-82538464D01*
X114421190Y-82511897D01*
X114550865Y-82428454D01*
X114637859Y-82301134D01*
X114668464Y-82150000D01*
X114668464Y-80950000D01*
X114641897Y-80808810D01*
X114558454Y-80679135D01*
X114431134Y-80592141D01*
X114280000Y-80561536D01*
X112480000Y-80561536D01*
X112338810Y-80588103D01*
X112209135Y-80671546D01*
X112122141Y-80798866D01*
X112091536Y-80950000D01*
X110583700Y-80950000D01*
X110644369Y-80645000D01*
X110549629Y-80168712D01*
X110279834Y-79764935D01*
X109876057Y-79495140D01*
X109399769Y-79400400D01*
X109040231Y-79400400D01*
X108563943Y-79495140D01*
X108160166Y-79764935D01*
X107890371Y-80168712D01*
X107795631Y-80645000D01*
X107136000Y-80645000D01*
X107136000Y-78105000D01*
X107795631Y-78105000D01*
X107890371Y-78581288D01*
X108160166Y-78985065D01*
X108563943Y-79254860D01*
X109040231Y-79349600D01*
X109399769Y-79349600D01*
X109876057Y-79254860D01*
X110279834Y-78985065D01*
X110303263Y-78950000D01*
X112091536Y-78950000D01*
X112091536Y-80150000D01*
X112118103Y-80291190D01*
X112201546Y-80420865D01*
X112328866Y-80507859D01*
X112480000Y-80538464D01*
X114280000Y-80538464D01*
X114421190Y-80511897D01*
X114550865Y-80428454D01*
X114637859Y-80301134D01*
X114668464Y-80150000D01*
X114668464Y-78950000D01*
X114641897Y-78808810D01*
X114558454Y-78679135D01*
X114431134Y-78592141D01*
X114280000Y-78561536D01*
X112480000Y-78561536D01*
X112338810Y-78588103D01*
X112209135Y-78671546D01*
X112122141Y-78798866D01*
X112091536Y-78950000D01*
X110303263Y-78950000D01*
X110549629Y-78581288D01*
X110644369Y-78105000D01*
X110549629Y-77628712D01*
X110279834Y-77224935D01*
X109876057Y-76955140D01*
X109399769Y-76860400D01*
X109040231Y-76860400D01*
X108563943Y-76955140D01*
X108160166Y-77224935D01*
X107890371Y-77628712D01*
X107795631Y-78105000D01*
X107136000Y-78105000D01*
X107136000Y-76656000D01*
X112233294Y-76656000D01*
X112209135Y-76671546D01*
M02*
