G04 #@! TF.FileFunction,Legend,Top*
%FSLAX46Y46*%
G04 Gerber Fmt 4.6, Leading zero omitted, Abs format (unit mm)*
G04 Created by KiCad (PCBNEW 4.0.0-rc2-stable) date 29.11.2015 16:31:19*
%MOMM*%
G01*
G04 APERTURE LIST*
%ADD10C,0.100000*%
%ADD11C,0.190500*%
%ADD12C,0.150000*%
%ADD13R,2.127200X2.432000*%
%ADD14O,2.127200X2.432000*%
%ADD15R,2.432000X2.127200*%
%ADD16O,2.432000X2.127200*%
%ADD17R,1.050000X1.460000*%
%ADD18R,2.200000X1.600000*%
%ADD19R,2.127200X2.127200*%
%ADD20O,2.127200X2.127200*%
%ADD21R,2.200860X2.548840*%
%ADD22R,1.950000X1.700000*%
%ADD23R,1.300000X1.600000*%
G04 APERTURE END LIST*
D10*
D11*
X118999001Y-77954414D02*
X118999001Y-77192414D01*
X119253001Y-77736700D01*
X119507001Y-77192414D01*
X119507001Y-77954414D01*
X119869858Y-77555271D02*
X120123858Y-77555271D01*
X120232715Y-77954414D02*
X119869858Y-77954414D01*
X119869858Y-77192414D01*
X120232715Y-77192414D01*
X120450429Y-77192414D02*
X120885858Y-77192414D01*
X120668144Y-77954414D02*
X120668144Y-77192414D01*
X117819715Y-78703714D02*
X117819715Y-79211714D01*
X117638286Y-78413429D02*
X117456858Y-78957714D01*
X117928572Y-78957714D01*
X118327715Y-78776286D02*
X118255143Y-78740000D01*
X118218858Y-78703714D01*
X118182572Y-78631143D01*
X118182572Y-78594857D01*
X118218858Y-78522286D01*
X118255143Y-78486000D01*
X118327715Y-78449714D01*
X118472858Y-78449714D01*
X118545429Y-78486000D01*
X118581715Y-78522286D01*
X118618000Y-78594857D01*
X118618000Y-78631143D01*
X118581715Y-78703714D01*
X118545429Y-78740000D01*
X118472858Y-78776286D01*
X118327715Y-78776286D01*
X118255143Y-78812571D01*
X118218858Y-78848857D01*
X118182572Y-78921429D01*
X118182572Y-79066571D01*
X118218858Y-79139143D01*
X118255143Y-79175429D01*
X118327715Y-79211714D01*
X118472858Y-79211714D01*
X118545429Y-79175429D01*
X118581715Y-79139143D01*
X118618000Y-79066571D01*
X118618000Y-78921429D01*
X118581715Y-78848857D01*
X118545429Y-78812571D01*
X118472858Y-78776286D01*
X119488857Y-78413429D02*
X118835714Y-79393143D01*
X119706572Y-78522286D02*
X119742858Y-78486000D01*
X119815429Y-78449714D01*
X119996858Y-78449714D01*
X120069429Y-78486000D01*
X120105715Y-78522286D01*
X120142000Y-78594857D01*
X120142000Y-78667429D01*
X120105715Y-78776286D01*
X119670286Y-79211714D01*
X120142000Y-79211714D01*
X120613714Y-78449714D02*
X120686286Y-78449714D01*
X120758857Y-78486000D01*
X120795143Y-78522286D01*
X120831429Y-78594857D01*
X120867714Y-78740000D01*
X120867714Y-78921429D01*
X120831429Y-79066571D01*
X120795143Y-79139143D01*
X120758857Y-79175429D01*
X120686286Y-79211714D01*
X120613714Y-79211714D01*
X120541143Y-79175429D01*
X120504857Y-79139143D01*
X120468572Y-79066571D01*
X120432286Y-78921429D01*
X120432286Y-78740000D01*
X120468572Y-78594857D01*
X120504857Y-78522286D01*
X120541143Y-78486000D01*
X120613714Y-78449714D01*
X121593428Y-79211714D02*
X121158000Y-79211714D01*
X121375714Y-79211714D02*
X121375714Y-78449714D01*
X121303143Y-78558571D01*
X121230571Y-78631143D01*
X121158000Y-78667429D01*
X122282857Y-78449714D02*
X121920000Y-78449714D01*
X121883714Y-78812571D01*
X121920000Y-78776286D01*
X121992571Y-78740000D01*
X122174000Y-78740000D01*
X122246571Y-78776286D01*
X122282857Y-78812571D01*
X122319142Y-78885143D01*
X122319142Y-79066571D01*
X122282857Y-79139143D01*
X122246571Y-79175429D01*
X122174000Y-79211714D01*
X121992571Y-79211714D01*
X121920000Y-79175429D01*
X121883714Y-79139143D01*
X118726857Y-79707014D02*
X118980857Y-80469014D01*
X119234857Y-79707014D01*
X119888000Y-80469014D02*
X119452572Y-80469014D01*
X119670286Y-80469014D02*
X119670286Y-79707014D01*
X119597715Y-79815871D01*
X119525143Y-79888443D01*
X119452572Y-79924729D01*
X120214572Y-80396443D02*
X120250857Y-80432729D01*
X120214572Y-80469014D01*
X120178286Y-80432729D01*
X120214572Y-80396443D01*
X120214572Y-80469014D01*
X120722571Y-79707014D02*
X120795143Y-79707014D01*
X120867714Y-79743300D01*
X120904000Y-79779586D01*
X120940286Y-79852157D01*
X120976571Y-79997300D01*
X120976571Y-80178729D01*
X120940286Y-80323871D01*
X120904000Y-80396443D01*
X120867714Y-80432729D01*
X120795143Y-80469014D01*
X120722571Y-80469014D01*
X120650000Y-80432729D01*
X120613714Y-80396443D01*
X120577429Y-80323871D01*
X120541143Y-80178729D01*
X120541143Y-79997300D01*
X120577429Y-79852157D01*
X120613714Y-79779586D01*
X120650000Y-79743300D01*
X120722571Y-79707014D01*
D12*
X124460000Y-100965000D02*
X111760000Y-100965000D01*
X111760000Y-100965000D02*
X111760000Y-98425000D01*
X111760000Y-98425000D02*
X124460000Y-98425000D01*
X127280000Y-101245000D02*
X125730000Y-101245000D01*
X124460000Y-100965000D02*
X124460000Y-98425000D01*
X125730000Y-98145000D02*
X127280000Y-98145000D01*
X127280000Y-98145000D02*
X127280000Y-101245000D01*
X130810000Y-79375000D02*
X130810000Y-92075000D01*
X130810000Y-92075000D02*
X128270000Y-92075000D01*
X128270000Y-92075000D02*
X128270000Y-79375000D01*
X131090000Y-76555000D02*
X131090000Y-78105000D01*
X130810000Y-79375000D02*
X128270000Y-79375000D01*
X127990000Y-78105000D02*
X127990000Y-76555000D01*
X127990000Y-76555000D02*
X131090000Y-76555000D01*
X107950000Y-89535000D02*
X107950000Y-76835000D01*
X107950000Y-76835000D02*
X110490000Y-76835000D01*
X110490000Y-76835000D02*
X110490000Y-89535000D01*
X107670000Y-92355000D02*
X107670000Y-90805000D01*
X107950000Y-89535000D02*
X110490000Y-89535000D01*
X110770000Y-90805000D02*
X110770000Y-92355000D01*
X110770000Y-92355000D02*
X107670000Y-92355000D01*
X124892000Y-94915000D02*
G75*
G03X124892000Y-94915000I-100000J0D01*
G01*
X125042000Y-94365000D02*
X125042000Y-94865000D01*
X127942000Y-94365000D02*
X125042000Y-94365000D01*
X127942000Y-94865000D02*
X127942000Y-94365000D01*
X125042000Y-94865000D02*
X127942000Y-94865000D01*
X113380000Y-90550000D02*
X113380000Y-72550000D01*
X113380000Y-72550000D02*
X125380000Y-72550000D01*
X113380000Y-90550000D02*
X125380000Y-90550000D01*
X125380000Y-90550000D02*
X125380000Y-72550000D01*
X116840000Y-90170000D02*
X124460000Y-90170000D01*
X124460000Y-90170000D02*
X124460000Y-85090000D01*
X124460000Y-85090000D02*
X114300000Y-85090000D01*
X114300000Y-85090000D02*
X114300000Y-87630000D01*
X114020000Y-88900000D02*
X114020000Y-90450000D01*
X114300000Y-87630000D02*
X116840000Y-87630000D01*
X116840000Y-87630000D02*
X116840000Y-90170000D01*
X114020000Y-90450000D02*
X115570000Y-90450000D01*
X125089920Y-91287600D02*
X121290080Y-91287600D01*
X125089920Y-96987360D02*
X125089920Y-91988640D01*
X121290080Y-96984820D02*
X121290080Y-91986100D01*
X126192280Y-90685620D02*
X125092460Y-90685620D01*
X125691900Y-90086180D02*
X125691900Y-91285060D01*
X127894080Y-100990400D02*
X131693920Y-100990400D01*
X127894080Y-95290640D02*
X127894080Y-100289360D01*
X131693920Y-95293180D02*
X131693920Y-100291900D01*
X126791720Y-101592380D02*
X127891540Y-101592380D01*
X127292100Y-102191820D02*
X127292100Y-100992940D01*
X117955714Y-94361000D02*
G75*
G03X117955714Y-94361000I-1750714J0D01*
G01*
X112980000Y-97586000D02*
X112980000Y-97461000D01*
X112980000Y-91136000D02*
X112980000Y-91261000D01*
X119430000Y-91136000D02*
X119430000Y-91261000D01*
X119430000Y-97461000D02*
X119430000Y-97586000D01*
X112980000Y-95761000D02*
X112980000Y-92961000D01*
X119430000Y-97586000D02*
X112980000Y-97586000D01*
X119430000Y-95761000D02*
X119430000Y-92961000D01*
X119430000Y-91136000D02*
X112980000Y-91136000D01*
X107275000Y-97655000D02*
X107275000Y-96655000D01*
X108625000Y-96655000D02*
X108625000Y-97655000D01*
X110530000Y-96655000D02*
X110530000Y-97655000D01*
X109180000Y-97655000D02*
X109180000Y-96655000D01*
X131282381Y-100433095D02*
X130282381Y-100433095D01*
X130282381Y-100052142D01*
X130330000Y-99956904D01*
X130377619Y-99909285D01*
X130472857Y-99861666D01*
X130615714Y-99861666D01*
X130710952Y-99909285D01*
X130758571Y-99956904D01*
X130806190Y-100052142D01*
X130806190Y-100433095D01*
X131282381Y-98909285D02*
X131282381Y-99480714D01*
X131282381Y-99195000D02*
X130282381Y-99195000D01*
X130425238Y-99290238D01*
X130520476Y-99385476D01*
X130568095Y-99480714D01*
X128801905Y-93797381D02*
X128801905Y-92797381D01*
X129182858Y-92797381D01*
X129278096Y-92845000D01*
X129325715Y-92892619D01*
X129373334Y-92987857D01*
X129373334Y-93130714D01*
X129325715Y-93225952D01*
X129278096Y-93273571D01*
X129182858Y-93321190D01*
X128801905Y-93321190D01*
X129754286Y-92892619D02*
X129801905Y-92845000D01*
X129897143Y-92797381D01*
X130135239Y-92797381D01*
X130230477Y-92845000D01*
X130278096Y-92892619D01*
X130325715Y-92987857D01*
X130325715Y-93083095D01*
X130278096Y-93225952D01*
X129706667Y-93797381D01*
X130325715Y-93797381D01*
X108481905Y-93924381D02*
X108481905Y-92924381D01*
X108862858Y-92924381D01*
X108958096Y-92972000D01*
X109005715Y-93019619D01*
X109053334Y-93114857D01*
X109053334Y-93257714D01*
X109005715Y-93352952D01*
X108958096Y-93400571D01*
X108862858Y-93448190D01*
X108481905Y-93448190D01*
X109386667Y-92924381D02*
X110005715Y-92924381D01*
X109672381Y-93305333D01*
X109815239Y-93305333D01*
X109910477Y-93352952D01*
X109958096Y-93400571D01*
X110005715Y-93495810D01*
X110005715Y-93733905D01*
X109958096Y-93829143D01*
X109910477Y-93876762D01*
X109815239Y-93924381D01*
X109529524Y-93924381D01*
X109434286Y-93876762D01*
X109386667Y-93829143D01*
X125730095Y-91654381D02*
X125730095Y-92463905D01*
X125777714Y-92559143D01*
X125825333Y-92606762D01*
X125920571Y-92654381D01*
X126111048Y-92654381D01*
X126206286Y-92606762D01*
X126253905Y-92559143D01*
X126301524Y-92463905D01*
X126301524Y-91654381D01*
X126730095Y-91749619D02*
X126777714Y-91702000D01*
X126872952Y-91654381D01*
X127111048Y-91654381D01*
X127206286Y-91702000D01*
X127253905Y-91749619D01*
X127301524Y-91844857D01*
X127301524Y-91940095D01*
X127253905Y-92082952D01*
X126682476Y-92654381D01*
X127301524Y-92654381D01*
X113665095Y-91400381D02*
X113665095Y-92209905D01*
X113712714Y-92305143D01*
X113760333Y-92352762D01*
X113855571Y-92400381D01*
X114046048Y-92400381D01*
X114141286Y-92352762D01*
X114188905Y-92305143D01*
X114236524Y-92209905D01*
X114236524Y-91400381D01*
X114617476Y-91400381D02*
X115236524Y-91400381D01*
X114903190Y-91781333D01*
X115046048Y-91781333D01*
X115141286Y-91828952D01*
X115188905Y-91876571D01*
X115236524Y-91971810D01*
X115236524Y-92209905D01*
X115188905Y-92305143D01*
X115141286Y-92352762D01*
X115046048Y-92400381D01*
X114760333Y-92400381D01*
X114665095Y-92352762D01*
X114617476Y-92305143D01*
X116840095Y-91400381D02*
X116840095Y-92209905D01*
X116887714Y-92305143D01*
X116935333Y-92352762D01*
X117030571Y-92400381D01*
X117221048Y-92400381D01*
X117316286Y-92352762D01*
X117363905Y-92305143D01*
X117411524Y-92209905D01*
X117411524Y-91400381D01*
X118411524Y-92400381D02*
X117840095Y-92400381D01*
X118125809Y-92400381D02*
X118125809Y-91400381D01*
X118030571Y-91543238D01*
X117935333Y-91638476D01*
X117840095Y-91686095D01*
X120880143Y-94273666D02*
X120927762Y-94321285D01*
X120975381Y-94464142D01*
X120975381Y-94559380D01*
X120927762Y-94702238D01*
X120832524Y-94797476D01*
X120737286Y-94845095D01*
X120546810Y-94892714D01*
X120403952Y-94892714D01*
X120213476Y-94845095D01*
X120118238Y-94797476D01*
X120023000Y-94702238D01*
X119975381Y-94559380D01*
X119975381Y-94464142D01*
X120023000Y-94321285D01*
X120070619Y-94273666D01*
X120975381Y-93321285D02*
X120975381Y-93892714D01*
X120975381Y-93607000D02*
X119975381Y-93607000D01*
X120118238Y-93702238D01*
X120213476Y-93797476D01*
X120261095Y-93892714D01*
X125420429Y-91566952D02*
X125420429Y-90805047D01*
X125801381Y-91185999D02*
X125039476Y-91185999D01*
X126579334Y-97639143D02*
X126531715Y-97686762D01*
X126388858Y-97734381D01*
X126293620Y-97734381D01*
X126150762Y-97686762D01*
X126055524Y-97591524D01*
X126007905Y-97496286D01*
X125960286Y-97305810D01*
X125960286Y-97162952D01*
X126007905Y-96972476D01*
X126055524Y-96877238D01*
X126150762Y-96782000D01*
X126293620Y-96734381D01*
X126388858Y-96734381D01*
X126531715Y-96782000D01*
X126579334Y-96829619D01*
X126960286Y-96829619D02*
X127007905Y-96782000D01*
X127103143Y-96734381D01*
X127341239Y-96734381D01*
X127436477Y-96782000D01*
X127484096Y-96829619D01*
X127531715Y-96924857D01*
X127531715Y-97020095D01*
X127484096Y-97162952D01*
X126912667Y-97734381D01*
X127531715Y-97734381D01*
X127706429Y-101091952D02*
X127706429Y-100330047D01*
X128087381Y-100710999D02*
X127325476Y-100710999D01*
X114871667Y-97178762D02*
X115014524Y-97226381D01*
X115252620Y-97226381D01*
X115347858Y-97178762D01*
X115395477Y-97131143D01*
X115443096Y-97035905D01*
X115443096Y-96940667D01*
X115395477Y-96845429D01*
X115347858Y-96797810D01*
X115252620Y-96750190D01*
X115062143Y-96702571D01*
X114966905Y-96654952D01*
X114919286Y-96607333D01*
X114871667Y-96512095D01*
X114871667Y-96416857D01*
X114919286Y-96321619D01*
X114966905Y-96274000D01*
X115062143Y-96226381D01*
X115300239Y-96226381D01*
X115443096Y-96274000D01*
X115776429Y-96226381D02*
X116014524Y-97226381D01*
X116205001Y-96512095D01*
X116395477Y-97226381D01*
X116633572Y-96226381D01*
X117538334Y-97226381D02*
X116966905Y-97226381D01*
X117252619Y-97226381D02*
X117252619Y-96226381D01*
X117157381Y-96369238D01*
X117062143Y-96464476D01*
X116966905Y-96512095D01*
X108402381Y-100369666D02*
X107926190Y-100703000D01*
X108402381Y-100941095D02*
X107402381Y-100941095D01*
X107402381Y-100560142D01*
X107450000Y-100464904D01*
X107497619Y-100417285D01*
X107592857Y-100369666D01*
X107735714Y-100369666D01*
X107830952Y-100417285D01*
X107878571Y-100464904D01*
X107926190Y-100560142D01*
X107926190Y-100941095D01*
X108402381Y-99417285D02*
X108402381Y-99988714D01*
X108402381Y-99703000D02*
X107402381Y-99703000D01*
X107545238Y-99798238D01*
X107640476Y-99893476D01*
X107688095Y-99988714D01*
X110307381Y-100369666D02*
X109831190Y-100703000D01*
X110307381Y-100941095D02*
X109307381Y-100941095D01*
X109307381Y-100560142D01*
X109355000Y-100464904D01*
X109402619Y-100417285D01*
X109497857Y-100369666D01*
X109640714Y-100369666D01*
X109735952Y-100417285D01*
X109783571Y-100464904D01*
X109831190Y-100560142D01*
X109831190Y-100941095D01*
X109402619Y-99988714D02*
X109355000Y-99941095D01*
X109307381Y-99845857D01*
X109307381Y-99607761D01*
X109355000Y-99512523D01*
X109402619Y-99464904D01*
X109497857Y-99417285D01*
X109593095Y-99417285D01*
X109735952Y-99464904D01*
X110307381Y-100036333D01*
X110307381Y-99417285D01*
%LPC*%
D13*
X125730000Y-99695000D03*
D14*
X123190000Y-99695000D03*
X120650000Y-99695000D03*
X118110000Y-99695000D03*
X115570000Y-99695000D03*
X113030000Y-99695000D03*
D15*
X129540000Y-78105000D03*
D16*
X129540000Y-80645000D03*
X129540000Y-83185000D03*
X129540000Y-85725000D03*
X129540000Y-88265000D03*
X129540000Y-90805000D03*
D15*
X109220000Y-90805000D03*
D16*
X109220000Y-88265000D03*
X109220000Y-85725000D03*
X109220000Y-83185000D03*
X109220000Y-80645000D03*
X109220000Y-78105000D03*
D17*
X125542000Y-95715000D03*
X126492000Y-95715000D03*
X127442000Y-95715000D03*
X127442000Y-93515000D03*
X125542000Y-93515000D03*
D18*
X113380000Y-77550000D03*
X113380000Y-79550000D03*
X113380000Y-81550000D03*
X113380000Y-83550000D03*
X113380000Y-85550000D03*
X113380000Y-87550000D03*
X113380000Y-89550000D03*
X125380000Y-89550000D03*
X125380000Y-87550000D03*
X125380000Y-85550000D03*
X125380000Y-83550000D03*
X125380000Y-81550000D03*
X125380000Y-79550000D03*
X125380000Y-77550000D03*
D19*
X115570000Y-88900000D03*
D20*
X115570000Y-86360000D03*
X118110000Y-88900000D03*
X118110000Y-86360000D03*
X120650000Y-88900000D03*
X120650000Y-86360000D03*
X123190000Y-88900000D03*
X123190000Y-86360000D03*
D21*
X123190000Y-96113600D03*
X123190000Y-92862400D03*
X129794000Y-96164400D03*
X129794000Y-99415600D03*
D22*
X120180000Y-92111000D03*
X120180000Y-96611000D03*
X112230000Y-96611000D03*
X112230000Y-92111000D03*
D23*
X107950000Y-96055000D03*
X107950000Y-98255000D03*
X109855000Y-98255000D03*
X109855000Y-96055000D03*
M02*
